<svg width="24" height="18" viewBox="0 0 24 18" fill="none" xmlns="http://www.w3.org/2000/svg">
<path d="M5.3662 2.9848C5.37676 2.95623 5.41782 2.88416 5.43414 2.85351C5.78213 2.88691 6.29394 2.86797 6.65222 2.86266C6.78763 2.86066 7.27805 2.83922 7.37416 2.88127C7.24083 3.27492 7.08811 3.69874 6.96702 4.09356L6.73115 4.78018L6.55756 5.3007C6.43125 5.67131 6.26501 6.21582 6.12357 6.56811C5.99627 6.94746 5.86959 7.3416 5.73392 7.71684L5.52204 8.34725C5.46154 8.52399 5.38681 8.76754 5.31997 8.9357L5.1372 9.48673C4.68525 9.48491 4.15327 9.49557 3.7072 9.46282C3.48656 9.47763 3.24038 9.46801 3.01735 9.46438C2.7686 9.4519 2.44938 9.45866 2.19535 9.45684C2.28717 9.26892 2.39337 9.03629 2.49803 8.85955C2.61398 8.58117 2.81252 8.20442 2.94949 7.92589C2.9772 7.85327 3.0304 7.76027 3.06835 7.68906C3.24495 7.29668 3.46455 6.86948 3.65438 6.47922C3.81932 6.14002 3.98457 5.79054 4.16011 5.45776L4.25321 5.26121C4.44263 4.86351 4.63626 4.46781 4.83405 4.07419L5.3662 2.9848Z" fill="#D9D9D9" style="fill:#D9D9D9;fill:color(display-p3 0.8510 0.8510 0.8510);fill-opacity:1;"/>
<path d="M2.94949 7.92589C2.9772 7.85327 3.0304 7.76027 3.06835 7.68906C3.22039 7.74614 4.03146 7.70338 4.23457 7.70413L4.23434 8.91179L3.03183 8.91335C3.03196 8.72855 3.05184 8.09008 2.98565 7.9536L2.94949 7.92589Z" fill="#D9D9D9" style="fill:#D9D9D9;fill:color(display-p3 0.8510 0.8510 0.8510);fill-opacity:1;"/>
<path d="M5.3662 2.9848C5.37676 2.95623 5.41782 2.88416 5.43414 2.85351C5.78213 2.88691 6.29394 2.86797 6.65222 2.86266L6.65289 4.07601C6.25176 4.07323 5.85059 4.07305 5.44942 4.07544C5.45137 3.87821 5.47879 3.17763 5.41379 3.02152L5.3662 2.9848Z" fill="#D9D9D9" style="fill:#D9D9D9;fill:color(display-p3 0.8510 0.8510 0.8510);fill-opacity:1;"/>
<path d="M5.45106 5.28118L6.55756 5.3007C6.43125 5.67131 6.26501 6.21582 6.12357 6.56811L6.11374 6.53336C6.02961 6.46136 5.58554 6.49237 5.4481 6.49439C5.45771 6.10059 5.45052 5.67729 5.45106 5.28118Z" fill="#D9D9D9" style="fill:#D9D9D9;fill:color(display-p3 0.8510 0.8510 0.8510);fill-opacity:1;"/>
<path d="M4.25321 5.26121C4.44263 4.86351 4.63626 4.46781 4.83405 4.07419C5.03838 4.07869 5.24277 4.07895 5.44714 4.07497C5.44061 4.47623 5.44025 4.87755 5.44602 5.27884C5.07576 5.27933 4.61455 5.29139 4.25321 5.26121Z" fill="#D9D9D9" style="fill:#D9D9D9;fill:color(display-p3 0.8510 0.8510 0.8510);fill-opacity:1;"/>
<path d="M4.23564 8.91257C4.57661 8.91335 4.98666 8.90451 5.31997 8.9357L5.1372 9.48673C4.68525 9.48491 4.15327 9.49557 3.7072 9.46282C3.86046 9.44098 4.07728 9.44982 4.23741 9.45112L4.23564 8.91257Z" fill="#D9D9D9" style="fill:#D9D9D9;fill:color(display-p3 0.8510 0.8510 0.8510);fill-opacity:1;"/>
<path d="M2.19535 9.45684C2.28717 9.26892 2.39337 9.03629 2.49803 8.85955C2.57671 8.95962 2.89369 8.91595 3.02619 8.91205L3.01735 9.46438C2.7686 9.4519 2.44938 9.45866 2.19535 9.45684Z" fill="#D9D9D9" style="fill:#D9D9D9;fill:color(display-p3 0.8510 0.8510 0.8510);fill-opacity:1;"/>
<path d="M4.16011 5.45776C4.26776 5.72649 4.23486 6.18886 4.23442 6.48959C4.03957 6.48909 3.84918 6.48987 3.65438 6.47922C3.81932 6.14002 3.98457 5.79054 4.16011 5.45776Z" fill="#D9D9D9" style="fill:#D9D9D9;fill:color(display-p3 0.8510 0.8510 0.8510);fill-opacity:1;"/>
<path d="M6.73115 4.78018C6.69562 4.5842 6.5953 4.26614 6.71592 4.10252C6.79792 4.05706 6.86999 4.08079 6.96702 4.09356L6.73115 4.78018Z" fill="#D9D9D9" style="fill:#D9D9D9;fill:color(display-p3 0.8510 0.8510 0.8510);fill-opacity:1;"/>
<path d="M5.52204 8.34725C5.4847 8.13086 5.39087 7.92595 5.48618 7.7504C5.58689 7.69358 5.60703 7.71411 5.73392 7.71684L5.52204 8.34725Z" fill="#D9D9D9" style="fill:#D9D9D9;fill:color(display-p3 0.8510 0.8510 0.8510);fill-opacity:1;"/>
<path d="M4.23857 6.49419L5.44568 6.49523C5.43274 6.87401 5.44521 7.31542 5.44683 7.69888C5.04262 7.69522 4.63841 7.69743 4.23426 7.70551C4.24484 7.31366 4.23764 6.88866 4.23857 6.49419Z" fill="#D9D9D9" style="fill:#D9D9D9;fill:color(display-p3 0.8510 0.8510 0.8510);fill-opacity:1;"/>
<path d="M11.1911 2.62918C11.2101 2.74268 11.1931 2.82224 11.2543 2.87711C11.3549 2.90178 11.3806 2.88174 11.4838 2.84475C11.5224 2.78375 11.5129 2.77205 11.5192 2.69387C11.5441 3.25067 11.5455 3.92458 11.5337 4.48336L11.5481 5.2819C11.5623 5.49306 11.5603 5.68753 11.5594 5.89851C12.0853 5.89879 12.6166 5.895 13.142 5.90118L13.1416 8.175L12.6511 8.18683C12.2688 8.18436 11.8865 8.18698 11.5042 8.19475C11.2804 8.2247 9.89065 8.23371 9.68914 8.19564L9.68135 7.70151C9.67142 7.30123 9.66952 6.89644 9.66469 6.49569L9.65741 5.86573L10.2777 5.87589C10.5759 5.88619 10.8742 5.89461 11.1726 5.90116L11.172 3.67283C11.1718 3.44828 11.157 2.80951 11.1911 2.62918Z" fill="#D9D9D9" style="fill:#D9D9D9;fill:color(display-p3 0.8510 0.8510 0.8510);fill-opacity:1;"/>
<path d="M11.1911 2.62918C11.2101 2.74268 11.1931 2.82224 11.2543 2.87711C11.3549 2.90178 11.3806 2.88174 11.4838 2.84475C11.5224 2.78375 11.5129 2.77205 11.5192 2.69387C11.5441 3.25067 11.5455 3.92458 11.5337 4.48336L11.5481 5.2819C11.5623 5.49306 11.5603 5.68753 11.5594 5.89851C12.0853 5.89879 12.6166 5.895 13.142 5.90118L13.1416 8.175L12.6511 8.18683L12.6995 8.14209C12.7228 8.01616 12.7067 7.82492 12.7016 7.69173L13.1118 7.71677L13.1121 6.49627L12.7032 6.49624L12.7004 5.93167C12.3147 5.93279 11.8785 5.94321 11.4973 5.92382L11.4948 6.49611C11.0916 6.49918 10.6884 6.4992 10.2852 6.49621C10.0784 6.49437 9.87152 6.49419 9.66469 6.49569L9.65741 5.86573L10.2777 5.87589C10.5759 5.88619 10.8742 5.89461 11.1726 5.90116L11.172 3.67283C11.1718 3.44828 11.157 2.80951 11.1911 2.62918Z" fill="#D9D9D9" style="fill:#D9D9D9;fill:color(display-p3 0.8510 0.8510 0.8510);fill-opacity:1;"/>
<path d="M11.2062 4.05836L11.5063 4.06182C11.5053 4.21494 11.4975 4.33403 11.5337 4.48336L11.5481 5.2819C11.4666 5.30579 11.2992 5.27933 11.2068 5.27026L11.2062 4.05836Z" fill="#D9D9D9" style="fill:#D9D9D9;fill:color(display-p3 0.8510 0.8510 0.8510);fill-opacity:1;"/>
<path d="M9.65741 5.86573L10.2777 5.87589C10.2924 6.07691 10.2865 6.29348 10.2852 6.49621C10.0784 6.49437 9.87152 6.49419 9.66469 6.49569L9.65741 5.86573Z" fill="#D9D9D9" style="fill:#D9D9D9;fill:color(display-p3 0.8510 0.8510 0.8510);fill-opacity:1;"/>
<path d="M11.5007 6.49499L12.7032 6.49624L12.7039 7.69722C12.301 7.69472 11.8982 7.69755 11.4954 7.70577C11.5121 7.33294 11.5003 6.87434 11.5007 6.49499Z" fill="#D9D9D9" style="fill:#D9D9D9;fill:color(display-p3 0.8510 0.8510 0.8510);fill-opacity:1;"/>
<path d="M9.66469 6.49569C9.87152 6.49419 10.0784 6.49437 10.2852 6.49621L10.2857 7.69896L9.68135 7.70151C9.67142 7.30123 9.66952 6.89644 9.66469 6.49569Z" fill="#D9D9D9" style="fill:#D9D9D9;fill:color(display-p3 0.8510 0.8510 0.8510);fill-opacity:1;"/>
<path d="M10.2879 7.70343C10.6897 7.70982 11.0916 7.70941 11.4934 7.70216C11.491 7.8062 11.4736 8.11649 11.5042 8.19475C11.2804 8.2247 9.89065 8.23371 9.68914 8.19564C9.8664 8.17011 10.1057 8.17827 10.2902 8.17895L10.2879 7.70343Z" fill="#D9D9D9" style="fill:#D9D9D9;fill:color(display-p3 0.8510 0.8510 0.8510);fill-opacity:1;"/>
<path d="M13.8817 14.3277L14.1069 14.2154C14.4773 14.3714 14.8366 14.5013 15.2306 14.5863C15.0645 14.6388 15.1196 14.7995 15.1251 14.9648C15.128 15.0971 15.1417 15.2473 15.1077 15.3721L15.0492 15.4035C14.7103 15.3445 14.3921 15.2049 14.0576 15.1283C14.018 15.1397 13.9847 15.1493 13.9578 15.1571C13.6914 15.3294 13.0642 15.4929 12.7353 15.5735C12.2813 15.6504 11.9486 15.698 11.4792 15.659C11.0716 15.6385 10.6169 15.5002 10.2577 15.3037C10.0932 15.2091 10.0139 15.1568 9.86263 15.0422C9.60948 15.1823 9.36967 15.3079 9.09658 15.4077C8.69103 15.5517 8.30878 15.6658 7.87562 15.7068C7.35857 15.7453 7.13788 15.7466 6.63379 15.6361C6.16669 15.5376 5.91227 15.3762 5.49696 15.1514C5.2088 15.3481 4.62396 15.5621 4.27977 15.6359C4.19998 15.5371 4.23416 15.0952 4.23626 14.9409C4.63345 14.9624 5.04257 14.9614 5.44043 14.9635C5.45122 14.7449 5.44872 14.6253 5.42907 14.4093C5.45896 14.3971 5.48885 14.3851 5.51874 14.3729C5.9144 14.4959 6.2436 14.6685 6.65536 14.7558C6.99649 14.8239 7.26058 14.841 7.60493 14.8746C8.21831 14.8171 8.48908 14.7813 9.06997 14.5894C9.30282 14.5039 9.56629 14.3646 9.79191 14.2528C9.94614 14.335 10.1327 14.4091 10.2955 14.4782C10.7099 14.631 11.036 14.7046 11.479 14.754C11.8878 14.7857 12.2989 14.7688 12.7037 14.7038C13.128 14.6315 13.4905 14.4943 13.8817 14.3277Z" fill="#D9D9D9" style="fill:#D9D9D9;fill:color(display-p3 0.8510 0.8510 0.8510);fill-opacity:1;"/>
<path d="M7.86803 14.9307C8.24025 14.9268 8.6791 14.9632 9.07444 14.9653C9.07247 15.1049 9.05503 15.2811 9.09658 15.4077C8.69103 15.5517 8.30878 15.6658 7.87562 15.7068C7.86819 15.4555 7.87037 15.1839 7.86803 14.9307Z" fill="#D9D9D9" style="fill:#D9D9D9;fill:color(display-p3 0.8510 0.8510 0.8510);fill-opacity:1;"/>
<path d="M13.8817 14.3277L14.1069 14.2154C14.4773 14.3714 14.8366 14.5013 15.2306 14.5863C15.0645 14.6388 15.1196 14.7995 15.1251 14.9648L13.9184 14.9616C13.9219 14.8124 13.9503 14.4408 13.8817 14.3277Z" fill="#D9D9D9" style="fill:#D9D9D9;fill:color(display-p3 0.8510 0.8510 0.8510);fill-opacity:1;"/>
<path d="M10.2872 14.9642C10.6823 14.965 11.1007 14.9577 11.4936 14.9663C11.49 15.1782 11.4935 15.4524 11.4792 15.659C11.0716 15.6385 10.6169 15.5002 10.2577 15.3037C10.3066 15.1995 10.2901 15.0835 10.2872 14.9642Z" fill="#D9D9D9" style="fill:#D9D9D9;fill:color(display-p3 0.8510 0.8510 0.8510);fill-opacity:1;"/>
<path d="M9.79191 14.2528C9.94614 14.335 10.1327 14.4091 10.2955 14.4782C10.2889 14.6391 10.2845 14.8 10.2823 14.9609C9.86879 14.9806 9.48857 14.9616 9.08016 14.9645C9.08169 14.8634 9.09404 14.6778 9.06997 14.5894C9.30282 14.5039 9.56629 14.3646 9.79191 14.2528Z" fill="#D9D9D9" style="fill:#D9D9D9;fill:color(display-p3 0.8510 0.8510 0.8510);fill-opacity:1;"/>
<path d="M5.49696 15.1514C5.46676 15.0521 5.45207 15.062 5.47684 14.9804C5.70621 14.9507 6.39382 14.9614 6.65448 14.964C6.65219 15.1641 6.65708 15.4435 6.63379 15.6361C6.16669 15.5376 5.91227 15.3762 5.49696 15.1514Z" fill="#D9D9D9" style="fill:#D9D9D9;fill:color(display-p3 0.8510 0.8510 0.8510);fill-opacity:1;"/>
<path d="M12.7041 14.9601C12.9614 14.9671 13.6705 14.9429 13.8726 14.991C13.9003 15.0466 13.9288 15.102 13.9578 15.1571C13.6914 15.3294 13.0642 15.4929 12.7353 15.5735C12.7063 15.3889 12.7083 15.1509 12.7041 14.9601Z" fill="#D9D9D9" style="fill:#D9D9D9;fill:color(display-p3 0.8510 0.8510 0.8510);fill-opacity:1;"/>
<path d="M11.479 14.754C11.8878 14.7857 12.2989 14.7688 12.7037 14.7038C12.7051 14.7787 12.7173 14.8837 12.6829 14.9435C12.5449 14.9538 11.6389 14.9663 11.528 14.9395C11.5123 14.8774 11.4959 14.8158 11.479 14.754Z" fill="#D9D9D9" style="fill:#D9D9D9;fill:color(display-p3 0.8510 0.8510 0.8510);fill-opacity:1;"/>
<path d="M6.65536 14.7558C6.99649 14.8239 7.26058 14.841 7.60493 14.8746C7.50721 14.9494 6.85523 14.9559 6.70295 14.9401C6.655 14.8837 6.66667 14.8449 6.65536 14.7558Z" fill="#D9D9D9" style="fill:#D9D9D9;fill:color(display-p3 0.8510 0.8510 0.8510);fill-opacity:1;"/>
<path d="M15.9695 7.54904C16.415 7.51132 17.3554 7.45261 17.7663 7.37767C17.7465 8.21996 17.7777 9.22577 17.7265 10.045C17.2296 10.057 16.6635 10.084 16.1728 10.0804C15.8068 10.0931 15.4412 10.1033 15.0752 10.1105C15.2096 9.70558 15.3606 9.30037 15.497 8.89281C15.659 8.44653 15.8165 7.99852 15.9695 7.54904Z" fill="#D9D9D9" style="fill:#D9D9D9;fill:color(display-p3 0.8510 0.8510 0.8510);fill-opacity:1;"/>
<path d="M15.497 8.89281C15.6881 8.92972 16.1226 8.91699 16.3316 8.91621C16.3334 9.18366 16.3539 9.77913 16.3253 10.0201C16.2588 10.0645 16.2489 10.0619 16.1728 10.0804C15.8068 10.0931 15.4412 10.1033 15.0752 10.1105C15.2096 9.70558 15.3606 9.30037 15.497 8.89281Z" fill="#D9D9D9" style="fill:#D9D9D9;fill:color(display-p3 0.8510 0.8510 0.8510);fill-opacity:1;"/>
<path d="M16.3357 7.69124C16.7441 7.69714 17.1524 7.69792 17.5607 7.6936C17.5612 8.08242 17.5485 8.47357 17.5635 8.86189C17.6075 8.93284 17.5781 8.90165 17.6852 8.93232L17.6077 8.9513C17.5776 9.04721 17.5908 9.31674 17.5924 9.43059L17.5823 9.45632L17.5737 8.91023L16.3404 8.90867L16.3357 7.69124Z" fill="#D9D9D9" style="fill:#D9D9D9;fill:color(display-p3 0.8510 0.8510 0.8510);fill-opacity:1;"/>
<path d="M18.6034 14.2217C18.6513 14.2695 18.7077 14.3132 18.7602 14.3563C19.4928 14.78 20.3414 14.9216 21.1799 14.9117C21.1768 15.0755 21.1232 15.3726 21.1978 15.5062C21.2194 15.5449 21.3493 15.5415 21.3985 15.5439C21.0239 15.6143 20.3102 15.5459 19.9352 15.4812C19.5718 15.4311 19.2657 15.3118 18.9351 15.1613C18.8431 15.1194 18.7251 15.044 18.6414 15.0201C18.3461 15.141 17.8617 15.3232 17.5526 15.3695C17.2849 15.429 17.0141 15.4815 16.7389 15.4908C16.3729 15.5756 15.4367 15.4942 15.0492 15.4035L15.1077 15.3721C15.1417 15.2473 15.128 15.0971 15.1251 14.9648C15.1196 14.7995 15.0645 14.6388 15.2306 14.5863C15.6205 14.6703 15.9079 14.7056 16.3064 14.7306C16.7201 14.7446 17.1342 14.708 17.5391 14.6212C17.9173 14.5432 18.2606 14.3919 18.6034 14.2217Z" fill="#D9D9D9" style="fill:#D9D9D9;fill:color(display-p3 0.8510 0.8510 0.8510);fill-opacity:1;"/>
<path d="M18.7602 14.3563C19.4928 14.78 20.3414 14.9216 21.1799 14.9117C21.1768 15.0755 21.1232 15.3726 21.1978 15.5062C21.2194 15.5449 21.3493 15.5415 21.3985 15.5439C21.0239 15.6143 20.3102 15.5459 19.9352 15.4812C19.989 15.3614 19.9482 15.1257 19.9776 14.9388L18.7573 14.9746L18.7602 14.3563Z" fill="#D9D9D9" style="fill:#D9D9D9;fill:color(display-p3 0.8510 0.8510 0.8510);fill-opacity:1;"/>
<path d="M15.1251 14.9648L16.3355 14.9642L16.3222 15.4976C16.4714 15.4859 16.5889 15.4721 16.7389 15.4908C16.3729 15.5756 15.4367 15.4942 15.0492 15.4035L15.1077 15.3721C15.1417 15.2473 15.128 15.0971 15.1251 14.9648Z" fill="#D9D9D9" style="fill:#D9D9D9;fill:color(display-p3 0.8510 0.8510 0.8510);fill-opacity:1;"/>
<path d="M16.3064 14.7306C16.7201 14.7446 17.1342 14.708 17.5391 14.6212L17.5428 14.9596C17.2706 14.9549 16.5777 14.9814 16.3776 14.9513C16.3266 14.8855 16.3225 14.814 16.3064 14.7306Z" fill="#D9D9D9" style="fill:#D9D9D9;fill:color(display-p3 0.8510 0.8510 0.8510);fill-opacity:1;"/>
<path d="M17.5482 14.964C17.9108 14.9671 18.2866 14.9544 18.6414 15.0201C18.3461 15.141 17.8617 15.3232 17.5526 15.3695C17.5594 15.292 17.5498 15.0526 17.5482 14.964Z" fill="#D9D9D9" style="fill:#D9D9D9;fill:color(display-p3 0.8510 0.8510 0.8510);fill-opacity:1;"/>
<path d="M6.82407 0C7.10183 0.120706 7.37795 0.245102 7.65239 0.373163L7.8802 0.47196C7.86803 0.703625 7.84768 1.04911 7.91263 1.26864C7.87583 1.39043 7.83066 1.55784 7.78507 1.6727C7.65034 2.06926 7.51552 2.48908 7.37416 2.88127C7.27805 2.83922 6.78763 2.86066 6.65222 2.86266C6.29394 2.86797 5.78213 2.88691 5.43414 2.85351C5.6081 2.46119 5.84105 2.01301 6.03161 1.62223C6.21352 1.24124 6.40029 0.862591 6.59184 0.486359L6.59626 0.438767C6.6741 0.328328 6.76271 0.127958 6.82407 0Z" fill="#D9D9D9" style="fill:#D9D9D9;fill:color(display-p3 0.8510 0.8510 0.8510);fill-opacity:1;"/>
<path d="M6.65872 1.65519C7.02414 1.65695 7.42339 1.6516 7.78507 1.6727C7.65034 2.06926 7.51552 2.48908 7.37416 2.88127C7.27805 2.83922 6.78763 2.86066 6.65222 2.86266C6.66953 2.49472 6.6577 2.03053 6.65872 1.65519Z" fill="#D9D9D9" style="fill:#D9D9D9;fill:color(display-p3 0.8510 0.8510 0.8510);fill-opacity:1;"/>
<path d="M6.03161 1.62223C6.21352 1.24124 6.40029 0.862591 6.59184 0.486359C6.68138 0.804317 6.65482 1.30674 6.65334 1.64817C6.43353 1.65189 6.24994 1.66225 6.03161 1.62223Z" fill="#D9D9D9" style="fill:#D9D9D9;fill:color(display-p3 0.8510 0.8510 0.8510);fill-opacity:1;"/>
<path d="M6.82407 0C7.10183 0.120706 7.37795 0.245102 7.65239 0.373163C7.33182 0.494675 6.93323 0.41683 6.59626 0.438767C6.6741 0.328328 6.76271 0.127958 6.82407 0Z" fill="#D9D9D9" style="fill:#D9D9D9;fill:color(display-p3 0.8510 0.8510 0.8510);fill-opacity:1;"/>
<path d="M1.33878 14.3898C1.49898 14.4626 1.6667 14.5237 1.83132 14.5866C3.04748 14.9557 4.26345 14.9598 5.42907 14.4093C5.44872 14.6253 5.45122 14.7449 5.44043 14.9635C5.04257 14.9614 4.63345 14.9624 4.23626 14.9409C4.23416 15.0952 4.19998 15.5371 4.27977 15.6359C3.84796 15.7463 3.2973 15.8014 2.85198 15.7588C2.44951 15.7128 2.19111 15.6629 1.80346 15.5514C1.46582 15.4412 1.23552 15.3445 0.922433 15.1779L1.03975 14.9642L1.33878 14.3898Z" fill="#D9D9D9" style="fill:#D9D9D9;fill:color(display-p3 0.8510 0.8510 0.8510);fill-opacity:1;"/>
<path d="M1.33878 14.3898C1.49898 14.4626 1.6667 14.5237 1.83132 14.5866C1.82732 14.71 1.82179 14.8371 1.81942 14.9603C2.22495 14.9515 2.63053 14.945 3.03612 14.9406L3.03414 14.9754C3.02294 15.2013 3.08124 15.5566 2.99861 15.7255C2.93413 15.7552 2.92392 15.7513 2.85198 15.7588C2.44951 15.7128 2.19111 15.6629 1.80346 15.5514C1.46582 15.4412 1.23552 15.3445 0.922433 15.1779L1.03975 14.9642L1.33878 14.3898Z" fill="#D9D9D9" style="fill:#D9D9D9;fill:color(display-p3 0.8510 0.8510 0.8510);fill-opacity:1;"/>
<path d="M1.03975 14.9642C1.29938 14.9679 1.55905 14.9676 1.81867 14.9629C1.81425 15.154 1.81376 15.3619 1.80346 15.5514C1.46582 15.4412 1.23552 15.3445 0.922433 15.1779L1.03975 14.9642Z" fill="#D9D9D9" style="fill:#D9D9D9;fill:color(display-p3 0.8510 0.8510 0.8510);fill-opacity:1;"/>
<path d="M6.62402 16.6392C6.69217 16.6028 6.7317 16.583 6.80252 16.5534C7.30115 16.7777 7.40719 16.7883 7.91846 16.931C8.36022 16.9856 8.5867 16.9874 9.02412 16.9609C9.07049 16.9409 9.30825 16.9027 9.37341 16.8892C9.70965 16.8182 9.96012 16.7192 10.2697 16.5726C10.2815 16.7423 10.2569 17.1782 10.3353 17.2505C10.1708 17.3295 9.92124 17.4556 9.74474 17.5003C9.56111 17.5767 9.36533 17.6191 9.17196 17.6666C8.68913 17.7446 8.3623 17.7612 7.87651 17.6926C7.59295 17.6297 7.43144 17.5762 7.16878 17.4545C6.98882 17.3643 6.85287 17.2102 6.6807 17.289C6.66449 17.1294 6.68871 16.7429 6.62402 16.6392Z" fill="#D9D9D9" style="fill:#D9D9D9;fill:color(display-p3 0.8510 0.8510 0.8510);fill-opacity:1;"/>
<path d="M9.02412 16.9609C9.07049 16.9409 9.30825 16.9027 9.37341 16.8892C9.70965 16.8182 9.96012 16.7192 10.2697 16.5726C10.2815 16.7423 10.2569 17.1782 10.3353 17.2505C10.1708 17.3295 9.92124 17.4556 9.74474 17.5003L9.74203 17.4665C9.56272 17.48 9.31727 17.6471 9.12985 17.5858C9.08182 17.5169 9.08795 17.5522 9.09825 17.4792C9.22739 17.3921 9.48829 17.3984 9.64925 17.3906L9.07543 17.3867C9.07688 17.2687 9.10584 17.0311 9.02412 16.9609Z" fill="#D9D9D9" style="fill:#D9D9D9;fill:color(display-p3 0.8510 0.8510 0.8510);fill-opacity:1;"/>
<path d="M6.62402 16.6392C6.69217 16.6028 6.7317 16.583 6.80252 16.5534C7.30115 16.7777 7.40719 16.7883 7.91846 16.931C7.83321 17.0155 7.8677 17.2409 7.8607 17.3841C7.70414 17.3812 7.26957 17.3386 7.16878 17.4545C6.98882 17.3643 6.85287 17.2102 6.6807 17.289C6.66449 17.1294 6.68871 16.7429 6.62402 16.6392Z" fill="#D9D9D9" style="fill:#D9D9D9;fill:color(display-p3 0.8510 0.8510 0.8510);fill-opacity:1;"/>
<path d="M7.87651 17.6926C7.87206 17.5936 7.85598 17.4875 7.89408 17.3992C8.14889 17.3758 8.77924 17.3791 9.03519 17.402L9.07283 17.4478C9.06625 17.5873 9.0479 17.6035 9.17196 17.6666C8.68913 17.7446 8.3623 17.7612 7.87651 17.6926Z" fill="#D9D9D9" style="fill:#D9D9D9;fill:color(display-p3 0.8510 0.8510 0.8510);fill-opacity:1;"/>
<path d="M7.8802 0.47196C8.27972 0.650784 8.69976 0.831375 9.09372 1.01878L11.5157 2.10302L11.5192 2.69387C11.5129 2.77205 11.5224 2.78375 11.4838 2.84475C11.3806 2.88174 11.3549 2.90178 11.2543 2.87711C11.1931 2.82224 11.2101 2.74268 11.1911 2.62918C10.8893 2.5098 10.5628 2.36281 10.2616 2.23493C9.96841 2.10986 8.05272 1.24114 7.91263 1.26864C7.84768 1.04911 7.86803 0.703625 7.8802 0.47196Z" fill="#D9D9D9" style="fill:#D9D9D9;fill:color(display-p3 0.8510 0.8510 0.8510);fill-opacity:1;"/>
<path d="M7.8802 0.47196C8.27972 0.650784 8.69976 0.831375 9.09372 1.01878C9.05074 1.15835 9.07054 1.49468 9.05975 1.66293C9.46669 1.67598 9.89166 1.64406 10.2887 1.66439C10.2834 1.85945 10.2791 2.04062 10.2616 2.23493C9.96841 2.10986 8.05272 1.24114 7.91263 1.26864C7.84768 1.04911 7.86803 0.703625 7.8802 0.47196Z" fill="#D9D9D9" style="fill:#D9D9D9;fill:color(display-p3 0.8510 0.8510 0.8510);fill-opacity:1;"/>
<path d="M14.1915 16.4302C14.5323 16.5731 14.7696 16.6555 15.1277 16.7447C15.5129 16.831 15.7834 16.8575 16.1733 16.8772C16.7506 16.8728 16.9712 16.8271 17.5253 16.6763C17.5474 16.8915 17.5417 17.1161 17.5412 17.3334C16.296 17.6817 15.3728 17.6224 14.1689 17.2079L13.9388 17.3079C13.9171 17.0691 13.9238 16.8021 13.9241 16.5601L14.1915 16.4302Z" fill="#D9D9D9" style="fill:#D9D9D9;fill:color(display-p3 0.8510 0.8510 0.8510);fill-opacity:1;"/>
<path d="M15.1277 16.7447C15.5129 16.831 15.7834 16.8575 16.1733 16.8772L16.2856 16.8999C16.3843 17.002 16.3365 17.226 16.3482 17.4153C16.0025 17.414 15.4365 17.4316 15.1152 17.3872C15.129 17.1982 15.1251 16.9391 15.1277 16.7447Z" fill="#D9D9D9" style="fill:#D9D9D9;fill:color(display-p3 0.8510 0.8510 0.8510);fill-opacity:1;"/>
<path d="M18.7591 16.8099C19.8749 17.1502 20.9457 17.062 22.0599 16.7494C22.1223 16.8965 22.1886 17.0644 22.2543 17.2079C21.0585 17.5845 19.8889 17.7857 18.6632 17.3815L18.7227 17.3674C18.7913 17.2775 18.763 16.9334 18.7591 16.8099Z" fill="#D9D9D9" style="fill:#D9D9D9;fill:color(display-p3 0.8510 0.8510 0.8510);fill-opacity:1;"/>
<path d="M12.7124 16.8923C13.1731 16.8307 13.4937 16.739 13.9241 16.5601C13.9238 16.8021 13.9171 17.0691 13.9388 17.3079L13.5117 17.4662C13.2418 17.5437 12.9895 17.6167 12.7087 17.6518C12.3053 17.7014 11.9004 17.702 11.5028 17.6118C11.4779 17.5075 11.4834 17.4971 11.4996 17.388C11.5191 17.2715 11.5122 17.2042 11.5074 17.0886L11.5129 16.8307C11.9608 16.9149 12.256 16.9222 12.7124 16.8923Z" fill="#D9D9D9" style="fill:#D9D9D9;fill:color(display-p3 0.8510 0.8510 0.8510);fill-opacity:1;"/>
<path d="M11.5129 16.8307C11.9608 16.9149 12.256 16.9222 12.7124 16.8923C12.699 17.0561 12.7019 17.2201 12.7019 17.3843C12.3056 17.3849 11.8947 17.3799 11.4996 17.388C11.5191 17.2715 11.5122 17.2042 11.5074 17.0886L11.5129 16.8307Z" fill="#D9D9D9" style="fill:#D9D9D9;fill:color(display-p3 0.8510 0.8510 0.8510);fill-opacity:1;"/>
<path d="M12.7087 17.6518C12.7057 17.5637 12.686 17.4519 12.7544 17.3968C12.9398 17.3669 13.3394 17.3869 13.5117 17.4662C13.2418 17.5437 12.9895 17.6167 12.7087 17.6518Z" fill="#D9D9D9" style="fill:#D9D9D9;fill:color(display-p3 0.8510 0.8510 0.8510);fill-opacity:1;"/>
<path d="M6.62402 16.6392C6.68871 16.7429 6.66449 17.1294 6.6807 17.289C6.54828 17.3638 6.46672 17.3976 6.32692 17.455C6.04763 17.5767 5.7543 17.6632 5.45369 17.7126C4.96865 17.7818 4.72252 17.7864 4.24029 17.7342L4.23405 17.3841L4.24317 16.9074C4.68603 16.9791 4.99295 16.9965 5.44319 16.9555C5.91484 16.897 6.18626 16.8136 6.62402 16.6392Z" fill="#D9D9D9" style="fill:#D9D9D9;fill:color(display-p3 0.8510 0.8510 0.8510);fill-opacity:1;"/>
<path d="M4.24317 16.9074C4.68603 16.9791 4.99295 16.9965 5.44319 16.9555C5.42853 17.1086 5.44857 17.2349 5.43882 17.3841L4.23405 17.3841L4.24317 16.9074Z" fill="#D9D9D9" style="fill:#D9D9D9;fill:color(display-p3 0.8510 0.8510 0.8510);fill-opacity:1;"/>
<path d="M5.4533 17.3864C5.73017 17.3872 6.07115 17.3654 6.32692 17.455C6.04763 17.5767 5.7543 17.6632 5.45369 17.7126L5.4533 17.3864Z" fill="#D9D9D9" style="fill:#D9D9D9;fill:color(display-p3 0.8510 0.8510 0.8510);fill-opacity:1;"/>
<path d="M21.1799 14.9117C21.8211 14.8821 22.613 14.7875 23.2251 14.5798L23.3792 14.9497C23.4156 15.0386 23.4379 15.0464 23.4184 15.1202C23.2357 15.2106 22.6182 15.3674 22.3978 15.4074C22.1296 15.4615 21.6672 15.5509 21.3985 15.5439C21.3493 15.5415 21.2194 15.5449 21.1978 15.5062C21.1232 15.3726 21.1768 15.0755 21.1799 14.9117Z" fill="#D9D9D9" style="fill:#D9D9D9;fill:color(display-p3 0.8510 0.8510 0.8510);fill-opacity:1;"/>
<path d="M23.3792 14.9497C23.4156 15.0386 23.4379 15.0464 23.4184 15.1202C23.2357 15.2106 22.6182 15.3674 22.3978 15.4074C22.4007 15.239 22.3916 15.1176 22.3778 14.9492C22.5303 14.9629 23.2841 15.0076 23.3792 14.9497Z" fill="#D9D9D9" style="fill:#D9D9D9;fill:color(display-p3 0.8510 0.8510 0.8510);fill-opacity:1;"/>
<path d="M3.17792 16.5802C3.54252 16.7431 3.85337 16.8344 4.24317 16.9074L4.23405 17.3841L4.24029 17.7342C3.86132 17.669 3.61628 17.6027 3.25961 17.4644C3.11204 17.409 2.96852 17.3339 2.82656 17.2643C2.94697 17.0423 3.06304 16.806 3.17792 16.5802Z" fill="#D9D9D9" style="fill:#D9D9D9;fill:color(display-p3 0.8510 0.8510 0.8510);fill-opacity:1;"/>
<path d="M3.25961 17.4644C3.46468 17.3685 3.99166 17.3856 4.23405 17.3841L4.24029 17.7342C3.86132 17.669 3.61628 17.6027 3.25961 17.4644Z" fill="#D9D9D9" style="fill:#D9D9D9;fill:color(display-p3 0.8510 0.8510 0.8510);fill-opacity:1;"/>
<path d="M10.2697 16.5726L10.4713 16.4606C10.8169 16.6358 11.128 16.7605 11.5129 16.8307L11.5074 17.0886C11.5122 17.2042 11.5191 17.2715 11.4996 17.388C11.4834 17.4971 11.4779 17.5075 11.5028 17.6118C11.3127 17.5616 11.2313 17.533 11.0499 17.4563C10.8376 17.3628 10.7589 17.2684 10.5556 17.1834C10.4837 17.1533 10.4092 17.212 10.3353 17.2505C10.2569 17.1782 10.2815 16.7423 10.2697 16.5726Z" fill="#D9D9D9" style="fill:#D9D9D9;fill:color(display-p3 0.8510 0.8510 0.8510);fill-opacity:1;"/>
<path d="M11.4823 17.3765C11.4859 17.2689 11.4934 17.1954 11.5074 17.0886C11.5122 17.2042 11.5191 17.2715 11.4996 17.388C11.4834 17.4971 11.4779 17.5075 11.5028 17.6118C11.3127 17.5616 11.2313 17.533 11.0499 17.4563C11.1706 17.4119 11.3505 17.395 11.4823 17.3765Z" fill="#D9D9D9" style="fill:#D9D9D9;fill:color(display-p3 0.8510 0.8510 0.8510);fill-opacity:1;"/>
<path d="M18.067 16.4377C18.2554 16.609 18.5192 16.7278 18.7591 16.8099C18.763 16.9334 18.7913 17.2775 18.7227 17.3674L18.6632 17.3815C18.4696 17.3079 18.2858 17.2292 18.1117 17.1166C17.9204 17.1988 17.7369 17.2635 17.5412 17.3334C17.5417 17.1161 17.5474 16.8915 17.5253 16.6763C17.7262 16.5963 17.8754 16.5357 18.067 16.4377Z" fill="#D9D9D9" style="fill:#D9D9D9;fill:color(display-p3 0.8510 0.8510 0.8510);fill-opacity:1;"/>
<path d="M18.7698 13.6095C19.6618 13.2511 20.1366 12.7363 20.3991 12.2385C20.7121 11.6451 20.8719 10.7688 20.9378 10.3511L19.523 10.4531L18.9013 10.4934C18.6858 10.503 17.6995 10.5342 17.5412 10.5659C17.1389 10.581 16.7365 10.6013 16.3344 10.6265C15.9461 10.6439 15.3187 10.6579 14.9369 10.6992L14.6591 10.7102C14.5515 10.8721 14.3618 11.139 14.2721 11.3002C14.1878 11.4158 14.1134 11.5263 14.0341 11.6451C13.8662 11.6453 13.6923 11.6394 13.5269 11.6648C13.4191 11.6503 12.9678 11.6664 12.8349 11.6685C12.398 11.6786 11.4235 11.6724 11.0376 11.7166C10.8898 11.7041 10.5195 11.7205 10.3552 11.7231C9.96901 11.7319 9.0523 11.7272 8.72578 11.7688C8.52404 11.7608 8.25041 11.7737 8.04355 11.7776C7.70429 11.7719 7.29216 11.7943 6.94778 11.8042L6.68465 11.5723L6.34795 11.277L5.90808 10.8944L5.43625 10.8799C5.17429 10.8588 4.81941 10.8581 4.55753 10.8591C4.19821 10.8144 3.42842 10.8172 3.03859 10.8069C2.69317 10.7923 2.34755 10.7824 2.00185 10.7772C1.63577 10.7398 1.00617 10.7424 0.61985 10.7317C0.413355 10.7219 0.206703 10.7148 0 10.7107C0.199816 10.8588 0.396487 11.0111 0.589909 11.1679C0.650493 11.2196 0.764904 11.3238 0.825021 11.3665C1.1517 11.6674 1.47104 11.9762 1.78275 12.2925C2.13635 12.6965 2.86746 13.5396 3.03406 13.7604C3.0385 13.7663 3.04253 13.7717 3.04615 13.7767L3.32516 14.1606C3.65948 14.177 3.92068 14.1993 4.25482 14.1692C4.74342 14.1213 5.00764 14.06 5.42188 13.7975L5.50312 13.7348C5.57829 13.7221 5.69366 13.7972 5.76854 13.8354C6.08427 13.9763 6.31928 14.0527 6.66061 14.1226C7.1556 14.1938 7.55955 14.2107 8.05992 14.12C8.7068 13.9958 9.14623 13.8323 9.71472 13.5082C9.90892 13.6098 10.0615 13.681 10.2632 13.7671C10.316 13.7886 10.3926 13.8232 10.4451 13.8383C10.7658 13.9534 11.0706 14.0358 11.4108 14.0753C11.8206 14.1543 12.3828 14.0701 12.7798 13.9763C12.9497 13.9251 13.047 13.8929 13.209 13.8224C13.4522 13.7322 13.7818 13.5399 13.9676 13.3587C14.5928 13.7538 15.3694 14.0233 16.1096 14.06C16.4753 14.1536 17.1698 14.0618 17.5474 13.9989C17.7133 13.9594 17.8695 13.9264 18.029 13.8653C18.238 13.8297 18.5657 13.6925 18.7698 13.6095Z" fill="#D9D9D9" style="fill:#D9D9D9;fill:color(display-p3 0.8510 0.8510 0.8510);fill-opacity:1;"/>
</svg>
